<mxfile host="app.diagrams.net" modified="2024-02-29T05:13:25.533Z" agent="Mozilla/5.0 (Macintosh; Intel Mac OS X 10_15_7) AppleWebKit/605.1.15 (KHTML, like Gecko) Version/17.3.1 Safari/605.1.15" version="23.1.8" etag="USKt02FAkgaBwSgyFFz5" type="github">
  <diagram name="第 1 页" id="L6y_pB8QnI34iofDsLIv">
    <mxGraphModel>
      <root>
        <mxCell id="0" />
        <mxCell id="1" parent="0" />
      </root>
    </mxGraphModel>
  </diagram>
</mxfile>
